<?xml version="1.0" encoding="UTF-8" standalone="no"?>
<!-- Created with Inkscape (http://www.inkscape.org/) -->

<svg
   xmlns:dc="http://purl.org/dc/elements/1.1/"
   xmlns:cc="http://creativecommons.org/ns#"
   xmlns:rdf="http://www.w3.org/1999/02/22-rdf-syntax-ns#"
   xmlns:svg="http://www.w3.org/2000/svg"
   xmlns="http://www.w3.org/2000/svg"
   xmlns:sodipodi="http://sodipodi.sourceforge.net/DTD/sodipodi-0.dtd"
   xmlns:inkscape="http://www.inkscape.org/namespaces/inkscape"
   width="744.09448819"
   height="1052.3622047"
   id="svg2"
   version="1.1"
   inkscape:version="0.48.1 "
   sodipodi:docname="BZ.svg">
  <defs
     id="defs4">
    <marker
       inkscape:stockid="Arrow1Lend"
       orient="auto"
       refY="0.0"
       refX="0.0"
       id="Arrow1Lend"
       style="overflow:visible;">
      <path
         id="path4112"
         d="M 0.0,0.0 L 5.0,-5.0 L -12.5,0.0 L 5.0,5.0 L 0.0,0.0 z "
         style="fill-rule:evenodd;stroke:#000000;stroke-width:1.0pt;marker-start:none;"
         transform="scale(0.8) rotate(180) translate(12.5,0)" />
    </marker>
  </defs>
  <sodipodi:namedview
     id="base"
     pagecolor="#ffffff"
     bordercolor="#666666"
     borderopacity="1.0"
     inkscape:pageopacity="0.0"
     inkscape:pageshadow="2"
     inkscape:zoom="1.4"
     inkscape:cx="298.20474"
     inkscape:cy="502.95892"
     inkscape:document-units="px"
     inkscape:current-layer="layer1"
     showgrid="false"
     inkscape:window-width="1258"
     inkscape:window-height="958"
     inkscape:window-x="17"
     inkscape:window-y="7"
     inkscape:window-maximized="0" />
  <metadata
     id="metadata7">
    <rdf:RDF>
      <cc:Work
         rdf:about="">
        <dc:format>image/svg+xml</dc:format>
        <dc:type
           rdf:resource="http://purl.org/dc/dcmitype/StillImage" />
      </cc:Work>
    </rdf:RDF>
  </metadata>
  <g
     inkscape:label="Layer 1"
     inkscape:groupmode="layer"
     id="layer1">
    <path
       style="fill:none;stroke:#000000;stroke-width:1;stroke-linecap:butt;stroke-linejoin:miter;stroke-opacity:1;stroke-miterlimit:4;stroke-dasharray:none"
       d="m 349.28571,505.93361 -16.42857,40 20.71429,35.71429 17.14286,-42.85715 z"
       id="path2996"
       inkscape:connector-curvature="0" />
    <path
       style="fill:none;stroke:#000000;stroke-width:1;stroke-linecap:butt;stroke-linejoin:miter;stroke-miterlimit:4;stroke-opacity:1;stroke-dasharray:none"
       d="M 125,419.50504 342.85714,458.79075 462.67857,365.3979 245.71429,325.21932 z"
       id="path3766"
       inkscape:connector-curvature="0"
       sodipodi:nodetypes="ccccc" />
    <path
       style="fill:none;stroke:#000000;stroke-width:1;stroke-linecap:butt;stroke-linejoin:miter;stroke-opacity:1;stroke-miterlimit:4;stroke-dasharray:none"
       d="m 342.67857,459.50504 7.14286,46.78571"
       id="path3768"
       inkscape:connector-curvature="0" />
    <path
       style="fill:none;stroke:#000000;stroke-width:1;stroke-linecap:butt;stroke-linejoin:miter;stroke-opacity:1;stroke-miterlimit:4;stroke-dasharray:none"
       d="m 332.85714,546.11218 -214.64285,-41.25 -7.85715,-46.07143 15,-39.28571"
       id="path3770"
       inkscape:connector-curvature="0" />
    <path
       style="fill:none;stroke:#000000;stroke-width:1;stroke-linecap:butt;stroke-linejoin:miter;stroke-opacity:1;stroke-miterlimit:4;stroke-dasharray:none"
       d="m 110.53571,458.79075 -2.67857,32.67857 7.30025,46.72522 3.32475,-33.51093"
       id="path3772"
       inkscape:connector-curvature="0" />
    <path
       style="fill:none;stroke:#000000;stroke-width:1;stroke-linecap:butt;stroke-linejoin:miter;stroke-opacity:1;stroke-miterlimit:4;stroke-dasharray:none"
       d="m 115.53571,537.54075 18.39286,35.35715 216.59436,39.54285 3.15673,-31.94608"
       id="path3774"
       inkscape:connector-curvature="0" />
    <path
       style="fill:none;stroke:#000000;stroke-width:1;stroke-linecap:butt;stroke-linejoin:miter;stroke-opacity:1;stroke-miterlimit:4;stroke-dasharray:none"
       d="m 350.39666,612.69329 120.33443,-93.81792 15.51891,-41.78105 3.03572,-30.98214 -118.75,92.5"
       id="path3776"
       inkscape:connector-curvature="0" />
    <path
       style="fill:none;stroke:#000000;stroke-width:1;stroke-linecap:butt;stroke-linejoin:miter;stroke-opacity:1;stroke-miterlimit:4;stroke-dasharray:none"
       d="m 489.28572,447.18361 -6.60715,-47.14286 -19.64285,-34.82143"
       id="path3778"
       inkscape:connector-curvature="0" />
    <path
       style="fill:none;stroke:#000000;stroke-width:1;stroke-linecap:butt;stroke-linejoin:miter;stroke-opacity:1;stroke-miterlimit:4;stroke-dasharray:none"
       d="m 482.85714,399.50504 -3.57142,32.5 7.14285,45.53571"
       id="path3780"
       inkscape:connector-curvature="0" />
    <path
       style="fill:none;stroke:#000000;stroke-width:1;stroke-linecap:butt;stroke-linejoin:miter;stroke-opacity:1;stroke-miterlimit:4;stroke-dasharray:none"
       d="m 107.5,491.29075 120.17857,-92.85714 16.25,-42.14286 2.5,-30.89285"
       id="path3782"
       inkscape:connector-curvature="0" />
    <path
       style="fill:none;stroke:#000000;stroke-width:1;stroke-linecap:butt;stroke-linejoin:miter;stroke-opacity:1;stroke-miterlimit:4;stroke-dasharray:none"
       d="m 227.58929,398.34432 20.44642,35.53572 15.53572,-41.16072 -19.64286,-36.60714"
       id="path3784"
       inkscape:connector-curvature="0" />
    <path
       style="fill:none;stroke:#000000;stroke-width:1;stroke-linecap:butt;stroke-linejoin:miter;stroke-opacity:1;stroke-miterlimit:4;stroke-dasharray:none"
       d="M 133.92857,573.07647 255,479.68361 247.85714,432.71932"
       id="path3786"
       inkscape:connector-curvature="0" />
    <path
       style="fill:none;stroke:#000000;stroke-width:1;stroke-linecap:butt;stroke-linejoin:miter;stroke-opacity:1;stroke-miterlimit:4;stroke-dasharray:none"
       d="M 470.71429,518.96932 255.17857,479.50504"
       id="path3788"
       inkscape:connector-curvature="0" />
    <path
       style="fill:none;stroke:#000000;stroke-width:1;stroke-linecap:butt;stroke-linejoin:miter;stroke-opacity:1;stroke-miterlimit:4;stroke-dasharray:none"
       d="m 263.21429,392.54075 215.71428,39.46429"
       id="path3790"
       inkscape:connector-curvature="0" />
    <path
       transform="matrix(0.92445685,0,0,0.92445685,18.746334,34.741291)"
       d="m 236.78572,438.61218 a 5.1785712,5.1785712 0 1 1 -10.35714,0 5.1785712,5.1785712 0 1 1 10.35714,0 z"
       sodipodi:ry="5.1785712"
       sodipodi:rx="5.1785712"
       sodipodi:cy="438.61218"
       sodipodi:cx="231.60715"
       id="path3806"
       style="fill:#000000;fill-opacity:1;stroke:#000000;stroke-opacity:1"
       sodipodi:type="arc" />
    <path
       transform="matrix(0.92445685,0,0,0.92445685,10.532048,119.74129)"
       d="m 236.78572,438.61218 a 5.1785712,5.1785712 0 1 1 -10.35714,0 5.1785712,5.1785712 0 1 1 10.35714,0 z"
       sodipodi:ry="5.1785712"
       sodipodi:rx="5.1785712"
       sodipodi:cy="438.61218"
       sodipodi:cx="231.60715"
       id="path3808"
       style="fill:#000000;fill-opacity:1;stroke:#000000;stroke-opacity:1"
       sodipodi:type="arc" />
    <path
       transform="matrix(0.92445685,0,0,0.92445685,26.246334,187.24129)"
       d="m 236.78572,438.61218 a 5.1785712,5.1785712 0 1 1 -10.35714,0 5.1785712,5.1785712 0 1 1 10.35714,0 z"
       sodipodi:ry="5.1785712"
       sodipodi:rx="5.1785712"
       sodipodi:cy="438.61218"
       sodipodi:cx="231.60715"
       id="path3810"
       style="fill:#000000;fill-opacity:1;stroke:#000000;stroke-opacity:1"
       sodipodi:type="arc" />
    <path
       transform="matrix(0.92445685,0,0,0.92445685,-80.53938,167.24129)"
       d="m 236.78572,438.61218 a 5.1785712,5.1785712 0 1 1 -10.35714,0 5.1785712,5.1785712 0 1 1 10.35714,0 z"
       sodipodi:ry="5.1785712"
       sodipodi:rx="5.1785712"
       sodipodi:cy="438.61218"
       sodipodi:cx="231.60715"
       id="path3812"
       style="fill:#000000;fill-opacity:1;stroke:#000000;stroke-opacity:1"
       sodipodi:type="arc" />
    <path
       transform="matrix(1.1023454,0,0,1.1023454,86.474661,-23.99706)"
       d="m 236.78572,438.61218 a 5.1785712,5.1785712 0 1 1 -10.35714,0 5.1785712,5.1785712 0 1 1 10.35714,0 z"
       sodipodi:ry="5.1785712"
       sodipodi:rx="5.1785712"
       sodipodi:cy="438.61218"
       sodipodi:cx="231.60715"
       id="path3824"
       style="fill:#000000;fill-opacity:1;stroke:#000000;stroke-opacity:1"
       sodipodi:type="arc" />
    <path
       sodipodi:type="arc"
       style="fill:#000000;fill-opacity:1;stroke:#000000;stroke-opacity:1"
       id="path3956"
       sodipodi:cx="231.60715"
       sodipodi:cy="438.61218"
       sodipodi:rx="5.1785712"
       sodipodi:ry="5.1785712"
       d="m 236.78572,438.61218 a 5.1785712,5.1785712 0 1 1 -10.35714,0 5.1785712,5.1785712 0 1 1 10.35714,0 z"
       transform="matrix(0.7357776,0,0,0.7357776,231.37436,89.998309)" />
    <path
       transform="matrix(0.7357776,0,0,0.7357776,245.83865,132.49831)"
       d="m 236.78572,438.61218 a 5.1785712,5.1785712 0 1 1 -10.35714,0 5.1785712,5.1785712 0 1 1 10.35714,0 z"
       sodipodi:ry="5.1785712"
       sodipodi:rx="5.1785712"
       sodipodi:cy="438.61218"
       sodipodi:cx="231.60715"
       id="path3966"
       style="fill:#000000;fill-opacity:1;stroke:#000000;stroke-opacity:1"
       sodipodi:type="arc" />
    <path
       transform="matrix(0.7357776,0,0,0.7357776,291.91008,42.498311)"
       d="m 236.78572,438.61218 a 5.1785712,5.1785712 0 1 1 -10.35714,0 5.1785712,5.1785712 0 1 1 10.35714,0 z"
       sodipodi:ry="5.1785712"
       sodipodi:rx="5.1785712"
       sodipodi:cy="438.61218"
       sodipodi:cx="231.60715"
       id="path3968"
       style="fill:#000000;fill-opacity:1;stroke:#000000;stroke-opacity:1"
       sodipodi:type="arc" />
    <path
       transform="matrix(0.7357776,0,0,0.7357776,312.44579,79.462597)"
       d="m 236.78572,438.61218 a 5.1785712,5.1785712 0 1 1 -10.35714,0 5.1785712,5.1785712 0 1 1 10.35714,0 z"
       sodipodi:ry="5.1785712"
       sodipodi:rx="5.1785712"
       sodipodi:cy="438.61218"
       sodipodi:cx="231.60715"
       id="path3970"
       style="fill:#000000;fill-opacity:1;stroke:#000000;stroke-opacity:1"
       sodipodi:type="arc" />
    <path
       transform="matrix(0.7357776,0,0,0.7357776,308.87436,110.17688)"
       d="m 236.78572,438.61218 a 5.1785712,5.1785712 0 1 1 -10.35714,0 5.1785712,5.1785712 0 1 1 10.35714,0 z"
       sodipodi:ry="5.1785712"
       sodipodi:rx="5.1785712"
       sodipodi:cy="438.61218"
       sodipodi:cx="231.60715"
       id="path3972"
       style="fill:#000000;fill-opacity:1;stroke:#000000;stroke-opacity:1"
       sodipodi:type="arc" />
    <path
       transform="matrix(0.7357776,0,0,0.7357776,313.33865,118.74831)"
       d="m 236.78572,438.61218 a 5.1785712,5.1785712 0 1 1 -10.35714,0 5.1785712,5.1785712 0 1 1 10.35714,0 z"
       sodipodi:ry="5.1785712"
       sodipodi:rx="5.1785712"
       sodipodi:cy="438.61218"
       sodipodi:cx="231.60715"
       id="path3974"
       style="fill:#000000;fill-opacity:1;stroke:#000000;stroke-opacity:1"
       sodipodi:type="arc" />
    <path
       transform="matrix(0.7357776,0,0,0.7357776,319.05294,124.64117)"
       d="m 236.78572,438.61218 a 5.1785712,5.1785712 0 1 1 -10.35714,0 5.1785712,5.1785712 0 1 1 10.35714,0 z"
       sodipodi:ry="5.1785712"
       sodipodi:rx="5.1785712"
       sodipodi:cy="438.61218"
       sodipodi:cx="231.60715"
       id="path3976"
       style="fill:#000000;fill-opacity:1;stroke:#000000;stroke-opacity:1"
       sodipodi:type="arc" />
    <path
       transform="matrix(0.7357776,0,0,0.7357776,316.01722,154.81974)"
       d="m 236.78572,438.61218 a 5.1785712,5.1785712 0 1 1 -10.35714,0 5.1785712,5.1785712 0 1 1 10.35714,0 z"
       sodipodi:ry="5.1785712"
       sodipodi:rx="5.1785712"
       sodipodi:cy="438.61218"
       sodipodi:cx="231.60715"
       id="path3978"
       style="fill:#000000;fill-opacity:1;stroke:#000000;stroke-opacity:1"
       sodipodi:type="arc" />
    <path
       sodipodi:type="arc"
       style="fill:#000000;fill-opacity:1;stroke:#000000;stroke-opacity:1"
       id="path3958"
       sodipodi:cx="231.60715"
       sodipodi:cy="438.61218"
       sodipodi:rx="5.1785712"
       sodipodi:ry="5.1785712"
       d="m 236.78572,438.61218 a 5.1785712,5.1785712 0 1 1 -10.35714,0 5.1785712,5.1785712 0 1 1 10.35714,0 z"
       transform="matrix(0.7357776,0,0,0.7357776,299.94579,195.89117)" />
    <path
       sodipodi:type="arc"
       style="fill:#000000;fill-opacity:1;stroke:#000000;stroke-opacity:1"
       id="path3960"
       sodipodi:cx="231.60715"
       sodipodi:cy="438.61218"
       sodipodi:rx="5.1785712"
       sodipodi:ry="5.1785712"
       d="m 236.78572,438.61218 a 5.1785712,5.1785712 0 1 1 -10.35714,0 5.1785712,5.1785712 0 1 1 10.35714,0 z"
       transform="matrix(0.7357776,0,0,0.7357776,257.72897,170.89117)" />
    <path
       sodipodi:type="arc"
       style="fill:#000000;fill-opacity:1;stroke:#000000;stroke-opacity:1"
       id="path3962"
       sodipodi:cx="231.60715"
       sodipodi:cy="438.61218"
       sodipodi:rx="5.1785712"
       sodipodi:ry="5.1785712"
       d="m 236.78572,438.61218 a 5.1785712,5.1785712 0 1 1 -10.35714,0 5.1785712,5.1785712 0 1 1 10.35714,0 z"
       transform="matrix(0.7357776,0,0,0.7357776,247.87998,208.51935)" />
    <path
       sodipodi:type="arc"
       style="fill:#000000;fill-opacity:1;stroke:#000000;stroke-opacity:1"
       id="path3964"
       sodipodi:cx="231.60715"
       sodipodi:cy="438.61218"
       sodipodi:rx="5.1785712"
       sodipodi:ry="5.1785712"
       d="m 236.78572,438.61218 a 5.1785712,5.1785712 0 1 1 -10.35714,0 5.1785712,5.1785712 0 1 1 10.35714,0 z"
       transform="matrix(0.7357776,0,0,0.7357776,238.53607,244.37977)" />
    <path
       transform="matrix(0.60999143,0,0,0.60999143,105.15019,57.669654)"
       d="m 236.78572,438.61218 a 5.1785712,5.1785712 0 1 1 -10.35714,0 5.1785712,5.1785712 0 1 1 10.35714,0 z"
       sodipodi:ry="5.1785712"
       sodipodi:rx="5.1785712"
       sodipodi:cy="438.61218"
       sodipodi:cx="231.60715"
       id="path3854"
       style="fill:#000000;fill-opacity:1;stroke:#000000;stroke-opacity:1"
       sodipodi:type="arc" />
    <path
       transform="matrix(0.65762409,0,0,0.65762409,90.903849,68.563103)"
       d="m 236.78572,438.61218 a 5.1785712,5.1785712 0 1 1 -10.35714,0 5.1785712,5.1785712 0 1 1 10.35714,0 z"
       sodipodi:ry="5.1785712"
       sodipodi:rx="5.1785712"
       sodipodi:cy="438.61218"
       sodipodi:cx="231.60715"
       id="path3856"
       style="fill:#000000;fill-opacity:1;stroke:#000000;stroke-opacity:1"
       sodipodi:type="arc" />
    <path
       transform="matrix(0.65762409,0,0,0.65762409,74.68635,110.24419)"
       d="m 236.78572,438.61218 a 5.1785712,5.1785712 0 1 1 -10.35714,0 5.1785712,5.1785712 0 1 1 10.35714,0 z"
       sodipodi:ry="5.1785712"
       sodipodi:rx="5.1785712"
       sodipodi:cy="438.61218"
       sodipodi:cx="231.60715"
       id="path3858"
       style="fill:#000000;fill-opacity:1;stroke:#000000;stroke-opacity:1"
       sodipodi:type="arc" />
    <path
       transform="matrix(0.67288451,0,0,0.67288451,91.655141,137.94112)"
       d="m 236.78572,438.61218 a 5.1785712,5.1785712 0 1 1 -10.35714,0 5.1785712,5.1785712 0 1 1 10.35714,0 z"
       sodipodi:ry="5.1785712"
       sodipodi:rx="5.1785712"
       sodipodi:cy="438.61218"
       sodipodi:cx="231.60715"
       id="path3860"
       style="fill:#000000;fill-opacity:1;stroke:#000000;stroke-opacity:1"
       sodipodi:type="arc" />
    <path
       transform="matrix(0.65762409,0,0,0.65762409,110.90385,103.92024)"
       d="m 236.78572,438.61218 a 5.1785712,5.1785712 0 1 1 -10.35714,0 5.1785712,5.1785712 0 1 1 10.35714,0 z"
       sodipodi:ry="5.1785712"
       sodipodi:rx="5.1785712"
       sodipodi:cy="438.61218"
       sodipodi:cx="231.60715"
       id="path3862"
       style="fill:#000000;fill-opacity:1;stroke:#000000;stroke-opacity:1"
       sodipodi:type="arc" />
    <path
       transform="matrix(0.65762409,0,0,0.65762409,102.68956,192.49167)"
       d="m 236.78572,438.61218 a 5.1785712,5.1785712 0 1 1 -10.35714,0 5.1785712,5.1785712 0 1 1 10.35714,0 z"
       sodipodi:ry="5.1785712"
       sodipodi:rx="5.1785712"
       sodipodi:cy="438.61218"
       sodipodi:cx="231.60715"
       id="path3870"
       style="fill:#000000;fill-opacity:1;stroke:#000000;stroke-opacity:1"
       sodipodi:type="arc" />
    <path
       sodipodi:type="arc"
       style="fill:#000000;fill-opacity:1;stroke:#000000;stroke-opacity:1"
       id="path3932"
       sodipodi:cx="231.60715"
       sodipodi:cy="438.61218"
       sodipodi:rx="5.1785712"
       sodipodi:ry="5.1785712"
       d="m 236.78572,438.61218 a 5.1785712,5.1785712 0 1 1 -10.35714,0 5.1785712,5.1785712 0 1 1 10.35714,0 z"
       transform="matrix(0.7357776,0,0,0.7357776,15.955949,49.641166)" />
    <path
       sodipodi:type="arc"
       style="fill:#000000;fill-opacity:1;stroke:#000000;stroke-opacity:1"
       id="path3934"
       sodipodi:cx="231.60715"
       sodipodi:cy="438.61218"
       sodipodi:rx="5.1785712"
       sodipodi:ry="5.1785712"
       d="m 236.78572,438.61218 a 5.1785712,5.1785712 0 1 1 -10.35714,0 5.1785712,5.1785712 0 1 1 10.35714,0 z"
       transform="matrix(0.7357776,0,0,0.7357776,5.5427858,86.430333)" />
    <path
       transform="matrix(0.7357776,0,0,0.7357776,-4.1000718,123.21604)"
       d="m 236.78572,438.61218 a 5.1785712,5.1785712 0 1 1 -10.35714,0 5.1785712,5.1785712 0 1 1 10.35714,0 z"
       sodipodi:ry="5.1785712"
       sodipodi:rx="5.1785712"
       sodipodi:cy="438.61218"
       sodipodi:cx="231.60715"
       id="path3874"
       style="fill:#000000;fill-opacity:1;stroke:#000000;stroke-opacity:1"
       sodipodi:type="arc" />
    <path
       transform="matrix(0.92445685,0,0,0.92445685,78.695572,66.8662)"
       d="m 236.78572,438.61218 a 5.1785712,5.1785712 0 1 1 -10.35714,0 5.1785712,5.1785712 0 1 1 10.35714,0 z"
       sodipodi:ry="5.1785712"
       sodipodi:rx="5.1785712"
       sodipodi:cy="438.61218"
       sodipodi:cx="231.60715"
       id="path3880"
       style="fill:#000000;fill-opacity:1;stroke:#000000;stroke-width:2.1634326;stroke-miterlimit:4;stroke-opacity:1;stroke-dasharray:none"
       sodipodi:type="arc" />
    <path
       transform="matrix(0.92445685,0,0,0.92445685,14.460618,78.669862)"
       d="m 236.78572,438.61218 a 5.1785712,5.1785712 0 1 1 -10.35714,0 5.1785712,5.1785712 0 1 1 10.35714,0 z"
       sodipodi:ry="5.1785712"
       sodipodi:rx="5.1785712"
       sodipodi:cy="438.61218"
       sodipodi:cx="231.60715"
       id="path3882"
       style="fill:#000000;fill-opacity:1;stroke:#000000;stroke-opacity:1"
       sodipodi:type="arc" />
    <path
       transform="matrix(0.65762409,0,0,0.65762409,93.403849,107.49167)"
       d="m 236.78572,438.61218 a 5.1785712,5.1785712 0 1 1 -10.35714,0 5.1785712,5.1785712 0 1 1 10.35714,0 z"
       sodipodi:ry="5.1785712"
       sodipodi:rx="5.1785712"
       sodipodi:cy="438.61218"
       sodipodi:cx="231.60715"
       id="path3888"
       style="fill:#000000;fill-opacity:1;stroke:#000000;stroke-opacity:1"
       sodipodi:type="arc" />
    <path
       transform="matrix(0.92445685,0,0,0.92445685,18.38919,154.74129)"
       d="m 236.78572,438.61218 a 5.1785712,5.1785712 0 1 1 -10.35714,0 5.1785712,5.1785712 0 1 1 10.35714,0 z"
       sodipodi:ry="5.1785712"
       sodipodi:rx="5.1785712"
       sodipodi:cy="438.61218"
       sodipodi:cx="231.60715"
       id="path3892"
       style="fill:#000000;fill-opacity:1;stroke:#000000;stroke-opacity:1"
       sodipodi:type="arc" />
    <path
       sodipodi:type="arc"
       style="fill:#000000;fill-opacity:1;stroke:#000000;stroke-opacity:1"
       id="path3924"
       sodipodi:cx="231.60715"
       sodipodi:cy="438.61218"
       sodipodi:rx="5.1785712"
       sodipodi:ry="5.1785712"
       d="m 236.78572,438.61218 a 5.1785712,5.1785712 0 1 1 -10.35714,0 5.1785712,5.1785712 0 1 1 10.35714,0 z"
       transform="matrix(1.1023454,0,0,1.1023454,93.696631,23.882762)" />
    <path
       sodipodi:type="arc"
       style="fill:#000000;fill-opacity:1;stroke:#000000;stroke-opacity:1"
       id="path3926"
       sodipodi:cx="231.60715"
       sodipodi:cy="438.61218"
       sodipodi:rx="5.1785712"
       sodipodi:ry="5.1785712"
       d="m 236.78572,438.61218 a 5.1785712,5.1785712 0 1 1 -10.35714,0 5.1785712,5.1785712 0 1 1 10.35714,0 z"
       transform="matrix(1.1023454,0,0,1.1023454,114.90983,54.692414)" />
    <path
       sodipodi:type="arc"
       style="fill:#000000;fill-opacity:1;stroke:#000000;stroke-opacity:1"
       id="path3928"
       sodipodi:cx="231.60715"
       sodipodi:cy="438.61218"
       sodipodi:rx="5.1785712"
       sodipodi:ry="5.1785712"
       d="m 236.78572,438.61218 a 5.1785712,5.1785712 0 1 1 -10.35714,0 5.1785712,5.1785712 0 1 1 10.35714,0 z"
       transform="matrix(1.1023454,0,0,1.1023454,78.039267,61.763482)" />
    <path
       sodipodi:type="arc"
       style="fill:#000000;fill-opacity:1;stroke:#000000;stroke-opacity:1"
       id="path3930"
       sodipodi:cx="231.60715"
       sodipodi:cy="438.61218"
       sodipodi:rx="5.1785712"
       sodipodi:ry="5.1785712"
       d="m 236.78572,438.61218 a 5.1785712,5.1785712 0 1 1 -10.35714,0 5.1785712,5.1785712 0 1 1 10.35714,0 z"
       transform="matrix(1.1023454,0,0,1.1023454,97.737241,96.613745)" />
    <path
       transform="matrix(1.1023454,0,0,1.1023454,94.706784,129.4437)"
       d="m 236.78572,438.61218 a 5.1785712,5.1785712 0 1 1 -10.35714,0 5.1785712,5.1785712 0 1 1 10.35714,0 z"
       sodipodi:ry="5.1785712"
       sodipodi:rx="5.1785712"
       sodipodi:cy="438.61218"
       sodipodi:cx="231.60715"
       id="path3824-1"
       style="fill:#000000;fill-opacity:1;stroke:#000000;stroke-opacity:1"
       sodipodi:type="arc" />
    <path
       sodipodi:type="arc"
       style="fill:#000000;fill-opacity:1;stroke:#000000;stroke-opacity:1"
       id="path3954"
       sodipodi:cx="231.60715"
       sodipodi:cy="438.61218"
       sodipodi:rx="5.1785712"
       sodipodi:ry="5.1785712"
       d="m 236.78572,438.61218 a 5.1785712,5.1785712 0 1 1 -10.35714,0 5.1785712,5.1785712 0 1 1 10.35714,0 z"
       transform="matrix(0.7357776,0,0,0.7357776,8.190716,163.36053)" />
    <path
       transform="matrix(0.7357776,0,0,0.7357776,22.932921,204.53283)"
       d="m 236.78572,438.61218 a 5.1785712,5.1785712 0 1 1 -10.35714,0 5.1785712,5.1785712 0 1 1 10.35714,0 z"
       sodipodi:ry="5.1785712"
       sodipodi:rx="5.1785712"
       sodipodi:cy="438.61218"
       sodipodi:cx="231.60715"
       id="path3874-7"
       style="fill:#000000;fill-opacity:1;stroke:#000000;stroke-opacity:1"
       sodipodi:type="arc" />
    <path
       sodipodi:type="arc"
       style="fill:#000000;fill-opacity:1;stroke:#000000;stroke-opacity:1"
       id="path3998"
       sodipodi:cx="231.60715"
       sodipodi:cy="438.61218"
       sodipodi:rx="5.1785712"
       sodipodi:ry="5.1785712"
       d="m 236.78572,438.61218 a 5.1785712,5.1785712 0 1 1 -10.35714,0 5.1785712,5.1785712 0 1 1 10.35714,0 z"
       transform="matrix(0.67288451,0,0,0.67288451,197.22149,49.936052)" />
    <path
       sodipodi:type="arc"
       style="fill:#000000;fill-opacity:1;stroke:#000000;stroke-opacity:1"
       id="path4000"
       sodipodi:cx="231.60715"
       sodipodi:cy="438.61218"
       sodipodi:rx="5.1785712"
       sodipodi:ry="5.1785712"
       d="m 236.78572,438.61218 a 5.1785712,5.1785712 0 1 1 -10.35714,0 5.1785712,5.1785712 0 1 1 10.35714,0 z"
       transform="matrix(0.67288451,0,0,0.67288451,205.58371,83.298271)" />
    <path
       sodipodi:type="arc"
       style="fill:#000000;fill-opacity:1;stroke:#000000;stroke-opacity:1"
       id="path4002"
       sodipodi:cx="231.60715"
       sodipodi:cy="438.61218"
       sodipodi:rx="5.1785712"
       sodipodi:ry="5.1785712"
       d="m 236.78572,438.61218 a 5.1785712,5.1785712 0 1 1 -10.35714,0 5.1785712,5.1785712 0 1 1 10.35714,0 z"
       transform="matrix(0.67288451,0,0,0.67288451,214.15514,117.22685)" />
    <path
       sodipodi:type="arc"
       style="fill:#000000;fill-opacity:1;stroke:#000000;stroke-opacity:1"
       id="path4004"
       sodipodi:cx="231.60715"
       sodipodi:cy="438.61218"
       sodipodi:rx="5.1785712"
       sodipodi:ry="5.1785712"
       d="m 236.78572,438.61218 a 5.1785712,5.1785712 0 1 1 -10.35714,0 5.1785712,5.1785712 0 1 1 10.35714,0 z"
       transform="matrix(0.67288451,0,0,0.67288451,209.86942,161.15541)" />
    <path
       sodipodi:type="arc"
       style="fill:#000000;fill-opacity:1;stroke:#000000;stroke-opacity:1"
       id="path4006"
       sodipodi:cx="231.60715"
       sodipodi:cy="438.61218"
       sodipodi:rx="5.1785712"
       sodipodi:ry="5.1785712"
       d="m 236.78572,438.61218 a 5.1785712,5.1785712 0 1 1 -10.35714,0 5.1785712,5.1785712 0 1 1 10.35714,0 z"
       transform="matrix(0.67288451,0,0,0.67288451,205.22657,204.01256)" />
    <path
       transform="matrix(0.7357776,0,0,0.7357776,121.03515,69.092758)"
       d="m 236.78572,438.61218 a 5.1785712,5.1785712 0 1 1 -10.35714,0 5.1785712,5.1785712 0 1 1 10.35714,0 z"
       sodipodi:ry="5.1785712"
       sodipodi:rx="5.1785712"
       sodipodi:cy="438.61218"
       sodipodi:cx="231.60715"
       id="path3966-0"
       style="fill:#000000;fill-opacity:1;stroke:#000000;stroke-opacity:1"
       sodipodi:type="arc" />
    <path
       transform="matrix(0.7357776,0,0,0.7357776,124.30067,222.79711)"
       d="m 236.78572,438.61218 a 5.1785712,5.1785712 0 1 1 -10.35714,0 5.1785712,5.1785712 0 1 1 10.35714,0 z"
       sodipodi:ry="5.1785712"
       sodipodi:rx="5.1785712"
       sodipodi:cy="438.61218"
       sodipodi:cx="231.60715"
       id="path3966-0-9"
       style="fill:#000000;fill-opacity:1;stroke:#000000;stroke-opacity:1"
       sodipodi:type="arc" />
    <path
       sodipodi:type="arc"
       style="fill:#000000;fill-opacity:1;stroke:#000000;stroke-opacity:1"
       id="path4062"
       sodipodi:cx="231.60715"
       sodipodi:cy="438.61218"
       sodipodi:rx="5.1785712"
       sodipodi:ry="5.1785712"
       d="m 236.78572,438.61218 a 5.1785712,5.1785712 0 1 1 -10.35714,0 5.1785712,5.1785712 0 1 1 10.35714,0 z"
       transform="matrix(0.80248579,0,0,0.80248579,-60.728795,67.900373)" />
    <path
       sodipodi:type="arc"
       style="fill:#000000;fill-opacity:1;stroke:#000000;stroke-opacity:1"
       id="path4064"
       sodipodi:cx="231.60715"
       sodipodi:cy="438.61218"
       sodipodi:rx="5.1785712"
       sodipodi:ry="5.1785712"
       d="m 236.78572,438.61218 a 5.1785712,5.1785712 0 1 1 -10.35714,0 5.1785712,5.1785712 0 1 1 10.35714,0 z"
       transform="matrix(0.80248579,0,0,0.80248579,-75.881083,108.55901)" />
    <path
       sodipodi:type="arc"
       style="fill:#000000;fill-opacity:1;stroke:#000000;stroke-opacity:1"
       id="path4066"
       sodipodi:cx="231.60715"
       sodipodi:cy="438.61218"
       sodipodi:rx="5.1785712"
       sodipodi:ry="5.1785712"
       d="m 236.78572,438.61218 a 5.1785712,5.1785712 0 1 1 -10.35714,0 5.1785712,5.1785712 0 1 1 10.35714,0 z"
       transform="matrix(0.80248579,0,0,0.80248579,-79.164079,139.11613)" />
    <path
       sodipodi:type="arc"
       style="fill:#000000;fill-opacity:1;stroke:#000000;stroke-opacity:1"
       id="path4068"
       sodipodi:cx="231.60715"
       sodipodi:cy="438.61218"
       sodipodi:rx="5.1785712"
       sodipodi:ry="5.1785712"
       d="m 236.78572,438.61218 a 5.1785712,5.1785712 0 1 1 -10.35714,0 5.1785712,5.1785712 0 1 1 10.35714,0 z"
       transform="matrix(0.80248579,0,0,0.80248579,-68.0524,152.50065)" />
    <path
       sodipodi:type="arc"
       style="fill:#000000;fill-opacity:1;stroke:#000000;stroke-opacity:1"
       id="path4070"
       sodipodi:cx="231.60715"
       sodipodi:cy="438.61218"
       sodipodi:rx="5.1785712"
       sodipodi:ry="5.1785712"
       d="m 236.78572,438.61218 a 5.1785712,5.1785712 0 1 1 -10.35714,0 5.1785712,5.1785712 0 1 1 10.35714,0 z"
       transform="matrix(0.80248579,0,0,0.80248579,-71.335396,185.33061)" />
    <path
       transform="matrix(0.80248579,0,0,0.80248579,-73.860778,145.68212)"
       d="m 236.78572,438.61218 a 5.1785712,5.1785712 0 1 1 -10.35714,0 5.1785712,5.1785712 0 1 1 10.35714,0 z"
       sodipodi:ry="5.1785712"
       sodipodi:rx="5.1785712"
       sodipodi:cy="438.61218"
       sodipodi:cx="231.60715"
       id="path3966-4"
       style="fill:#000000;fill-opacity:1;stroke:#000000;stroke-opacity:1"
       sodipodi:type="arc" />
    <path
       sodipodi:type="arc"
       style="fill:#000000;fill-opacity:1;stroke:#000000;stroke-opacity:1"
       id="path3926-8"
       sodipodi:cx="231.60715"
       sodipodi:cy="438.61218"
       sodipodi:rx="5.1785712"
       sodipodi:ry="5.1785712"
       d="m 236.78572,438.61218 a 5.1785712,5.1785712 0 1 1 -10.35714,0 5.1785712,5.1785712 0 1 1 10.35714,0 z"
       transform="matrix(1.1023454,0,0,1.1023454,96.727088,58.227949)" />
    <path
       style="fill:none;stroke:#000000;stroke-width:3;stroke-linecap:butt;stroke-linejoin:miter;stroke-opacity:1;stroke-miterlimit:4;stroke-dasharray:none"
       d="m 292.94424,472.02955 60.10407,69.70052 -19.69797,4.04061 -109.60155,-20.70813 69.10835,-50.73608 -0.92305,-82.09898 -60.10408,48.48733 -4.04061,43.43656 121.72338,23.2335 -7.07107,-47.98224 -49.75001,-67.17515"
       id="path5658"
       inkscape:connector-curvature="0" />
    <path
       style="fill:none;stroke:#000000;stroke-width:3;stroke-linecap:butt;stroke-linejoin:miter;stroke-miterlimit:4;stroke-opacity:1;stroke-dasharray:none"
       d="m 352.2907,540.97246 -1.76777,-33.33504"
       id="path5660"
       inkscape:connector-curvature="0"
       sodipodi:nodetypes="cc" />
    <path
       inkscape:transform-center-y="0.22445731"
       inkscape:transform-center-x="0.3055744"
       transform="matrix(-0.32828263,0.28410528,-0.48134304,-0.55619015,526.4657,676.06011)"
       d="m 87.370303,316.90315 6.064859,-10.50464 6.064861,-10.50465 6.064857,10.50465 6.06486,10.50464 -12.129717,0 z"
       inkscape:randomized="0"
       inkscape:rounded="0"
       inkscape:flatsided="false"
       sodipodi:arg2="3.6651914"
       sodipodi:arg1="2.6179939"
       sodipodi:r2="7.003098"
       sodipodi:r1="14.006194"
       sodipodi:cy="309.90005"
       sodipodi:cx="99.500023"
       sodipodi:sides="3"
       id="path5666"
       style="fill:#000000;stroke:none"
       sodipodi:type="star" />
    <path
       inkscape:transform-center-y="0.83689521"
       inkscape:transform-center-x="2.1135322"
       transform="matrix(0.07053782,-0.42838034,0.72577984,0.1195081,1.3263423,531.99766)"
       d="m 87.370303,316.90315 6.064859,-10.50464 6.064861,-10.50465 6.064857,10.50465 6.06486,10.50464 -12.129717,0 z"
       inkscape:randomized="0"
       inkscape:rounded="0"
       inkscape:flatsided="false"
       sodipodi:arg2="3.6651914"
       sodipodi:arg1="2.6179939"
       sodipodi:r2="7.003098"
       sodipodi:r1="14.006194"
       sodipodi:cy="309.90005"
       sodipodi:cx="99.500023"
       sodipodi:sides="3"
       id="path5668"
       style="fill:#000000;stroke:none"
       sodipodi:type="star" />
    <path
       inkscape:transform-center-y="0.47215641"
       inkscape:transform-center-x="-0.39140492"
       transform="matrix(0.26888467,0.34086117,-0.57750122,0.45555562,438.00561,304.59747)"
       d="m 87.370303,316.90315 6.064859,-10.50464 6.064861,-10.50465 6.064857,10.50465 6.06486,10.50464 -12.129717,0 z"
       inkscape:randomized="0"
       inkscape:rounded="0"
       inkscape:flatsided="false"
       sodipodi:arg2="3.6651914"
       sodipodi:arg1="2.6179939"
       sodipodi:r2="7.003098"
       sodipodi:r1="14.006194"
       sodipodi:cy="309.90005"
       sodipodi:cx="99.500023"
       sodipodi:sides="3"
       id="path5670"
       style="fill:#000000;stroke:none"
       sodipodi:type="star" />
    <path
       inkscape:transform-center-y="-2.534029"
       inkscape:transform-center-x="-0.080645865"
       transform="matrix(0.43409575,-0.00679611,0.01151423,0.73546312,245.09211,173.78039)"
       d="m 87.370303,316.90315 6.064859,-10.50464 6.064861,-10.50465 6.064857,10.50465 6.06486,10.50464 -12.129717,0 z"
       inkscape:randomized="0"
       inkscape:rounded="0"
       inkscape:flatsided="false"
       sodipodi:arg2="3.6651914"
       sodipodi:arg1="2.6179939"
       sodipodi:r2="7.003098"
       sodipodi:r1="14.006194"
       sodipodi:cy="309.90005"
       sodipodi:cx="99.500023"
       sodipodi:sides="3"
       id="path5672"
       style="fill:#000000;stroke:none"
       sodipodi:type="star" />
    <path
       inkscape:transform-center-y="-0.46486596"
       inkscape:transform-center-x="0.38409928"
       transform="matrix(-0.26956247,-0.34032539,0.57659348,-0.45670396,89.227871,608.9966)"
       d="m 87.370303,316.90315 6.064859,-10.50464 6.064861,-10.50465 6.064857,10.50465 6.06486,10.50464 -12.129717,0 z"
       inkscape:randomized="0"
       inkscape:rounded="0"
       inkscape:flatsided="false"
       sodipodi:arg2="3.6651914"
       sodipodi:arg1="2.6179939"
       sodipodi:r2="7.003098"
       sodipodi:r1="14.006194"
       sodipodi:cy="309.90005"
       sodipodi:cx="99.500023"
       sodipodi:sides="3"
       id="path5674"
       style="fill:#000000;stroke:none"
       sodipodi:type="star" />
    <path
       inkscape:transform-center-y="2.3473029"
       inkscape:transform-center-x="-0.4290425"
       transform="matrix(-0.43264041,-0.03616021,0.06126414,-0.73299745,252.27526,705.26669)"
       d="m 87.370303,316.90315 6.064859,-10.50464 6.064861,-10.50465 6.064857,10.50465 6.06486,10.50464 -12.129717,0 z"
       inkscape:randomized="0"
       inkscape:rounded="0"
       inkscape:flatsided="false"
       sodipodi:arg2="3.6651914"
       sodipodi:arg1="2.6179939"
       sodipodi:r2="7.003098"
       sodipodi:r1="14.006194"
       sodipodi:cy="309.90005"
       sodipodi:cx="99.500023"
       sodipodi:sides="3"
       id="path5676"
       style="fill:#000000;stroke:none"
       sodipodi:type="star" />
    <path
       inkscape:transform-center-y="-3.5872584"
       inkscape:transform-center-x="2.5738697"
       transform="matrix(-0.0770475,-0.4272575,0.7238775,-0.13053708,122.84141,627.34518)"
       d="m 87.370303,316.90315 6.064859,-10.50464 6.064861,-10.50465 6.064857,10.50465 6.06486,10.50464 -12.129717,0 z"
       inkscape:randomized="0"
       inkscape:rounded="0"
       inkscape:flatsided="false"
       sodipodi:arg2="3.6651914"
       sodipodi:arg1="2.6179939"
       sodipodi:r2="7.003098"
       sodipodi:r1="14.006194"
       sodipodi:cy="309.90005"
       sodipodi:cx="99.500023"
       sodipodi:sides="3"
       id="path5678"
       style="fill:#000000;stroke:none"
       sodipodi:type="star" />
    <path
       sodipodi:type="star"
       style="fill:#000000;stroke:none"
       id="path5662"
       sodipodi:sides="3"
       sodipodi:cx="99.500023"
       sodipodi:cy="309.90005"
       sodipodi:r1="14.006194"
       sodipodi:r2="7.003098"
       sodipodi:arg1="2.6179939"
       sodipodi:arg2="3.6651914"
       inkscape:flatsided="false"
       inkscape:rounded="0"
       inkscape:randomized="0"
       d="m 87.370303,316.90315 6.064859,-10.50464 6.064861,-10.50465 6.064857,10.50465 6.06486,10.50464 -12.129717,0 z"
       transform="matrix(-0.06687088,0.42896802,-0.72677556,-0.11329547,570.48732,497.7257)"
       inkscape:transform-center-x="-1.7439909"
       inkscape:transform-center-y="1.8983609" />
    <path
       sodipodi:type="star"
       style="fill:#000000;stroke:none"
       id="path5662-8"
       sodipodi:sides="3"
       sodipodi:cx="99.500023"
       sodipodi:cy="309.90005"
       sodipodi:r1="14.006194"
       sodipodi:r2="7.003098"
       sodipodi:arg1="2.6179939"
       sodipodi:arg2="3.6651914"
       inkscape:flatsided="false"
       inkscape:rounded="0"
       inkscape:randomized="0"
       d="m 87.370303,316.90315 6.064859,-10.50464 6.064861,-10.50465 6.064857,10.50465 6.06486,10.50464 -12.129717,0 z"
       transform="matrix(0.43165876,-0.04643279,0.07866835,0.73133431,276.48616,246.6999)"
       inkscape:transform-center-x="-3.2533125"
       inkscape:transform-center-y="-2.5940632" />
    <path
       sodipodi:type="star"
       style="fill:#000000;stroke:none"
       id="path5662-8-2"
       sodipodi:sides="3"
       sodipodi:cx="99.500023"
       sodipodi:cy="309.90005"
       sodipodi:r1="14.006194"
       sodipodi:r2="7.003098"
       sodipodi:arg1="2.6179939"
       sodipodi:arg2="3.6651914"
       inkscape:flatsided="false"
       inkscape:rounded="0"
       inkscape:randomized="0"
       d="m 87.370303,316.90315 6.064859,-10.50464 6.064861,-10.50465 6.064857,10.50465 6.06486,10.50464 -12.129717,0 z"
       transform="matrix(0.35061105,-0.25604136,0.43379595,0.59401992,129.25325,241.15025)"
       inkscape:transform-center-x="-2.7903537"
       inkscape:transform-center-y="-2.1510181" />
    <text
       xml:space="preserve"
       style="font-size:16px;font-style:normal;font-variant:normal;font-weight:normal;font-stretch:normal;text-align:start;line-height:100%;letter-spacing:0px;word-spacing:0px;writing-mode:lr-tb;text-anchor:start;fill:#000000;fill-opacity:1;stroke:none;font-family:Times New Roman;-inkscape-font-specification:Times New Roman"
       x="366.42859"
       y="577.36218"
       id="text5716"
       sodipodi:linespacing="100%"><tspan
         sodipodi:role="line"
         id="tspan5718"
         x="366.42859"
         y="577.36218"
         style="font-size:28px">X</tspan></text>
    <text
       xml:space="preserve"
       style="font-size:16px;font-style:normal;font-variant:normal;font-weight:normal;font-stretch:normal;text-align:start;line-height:100%;letter-spacing:0px;word-spacing:0px;writing-mode:lr-tb;text-anchor:start;fill:#000000;fill-opacity:1;stroke:none;font-family:Times New Roman;-inkscape-font-specification:Times New Roman"
       x="311.42856"
       y="582.36218"
       id="text5720"
       sodipodi:linespacing="100%"><tspan
         sodipodi:role="line"
         id="tspan5722"
         x="311.42856"
         y="582.36218"
         style="font-size:28px">Y</tspan></text>
  </g>
</svg>
